<svg width="24" height="24" viewBox="0 0 24 24" fill="none" xmlns="http://www.w3.org/2000/svg">
    <path fill-rule="evenodd" clip-rule="evenodd"
        d="M10.6247 6.21911C11.056 6.56412 11.1259 7.19341 10.7809 7.62467L8.08063 11H15.9194L13.2191 7.62467C12.8741 7.19341 12.944 6.56412 13.3753 6.21911C13.8066 5.8741 14.4359 5.94402 14.7809 6.37528L18.4806 11H21C21.328 11 21.6351 11.1608 21.8219 11.4304C22.0087 11.7 22.0515 12.044 21.9363 12.3511L18.9363 20.3511C18.79 20.7414 18.4169 21 18 21H6.00001C5.58316 21 5.21004 20.7414 5.06368 20.3511L2.06368 12.3511C1.94852 12.044 1.99126 11.7 2.17808 11.4304C2.3649 11.1608 2.67203 11 3.00001 11H5.51938L9.21914 6.37528C9.56415 5.94402 10.1934 5.8741 10.6247 6.21911ZM5.99077 13H4.44301L6.69301 19H17.307L19.557 13H18.0092C18.0035 13 17.9978 13 17.992 13H6.00797C6.00224 13 5.9965 13 5.99077 13Z"
        fill="black" />
</svg>