<svg width="24" height="24" viewBox="0 0 24 24" fill="none" xmlns="http://www.w3.org/2000/svg">
<path fill-rule="evenodd" clip-rule="evenodd" d="M12 4C12.3513 4 12.6768 4.1843 12.8575 4.4855L15.6299 9.10617L20.1961 10.0194C20.5578 10.0917 20.8502 10.3572 20.9571 10.7102C21.064 11.0632 20.9679 11.4463 20.7071 11.7071L17.0856 15.3287L17.9806 19.8039C18.0555 20.1784 17.9105 20.5629 17.607 20.7947C17.3035 21.0265 16.8944 21.0652 16.5528 20.8944L12 18.618L7.44724 20.8944C7.10563 21.0652 6.69656 21.0265 6.39303 20.7947C6.08951 20.5629 5.94454 20.1784 6.01944 19.8039L6.91449 15.3287L3.29292 11.7071C3.03214 11.4463 2.93606 11.0632 3.04293 10.7102C3.1498 10.3572 3.44228 10.0917 3.80391 10.0194L8.37013 9.10617L11.1425 4.4855C11.3233 4.1843 11.6488 4 12 4ZM12 6.94365L9.85752 10.5145C9.71256 10.7561 9.47241 10.9253 9.19614 10.9806L6.02837 11.6141L8.70713 14.2929C8.94356 14.5293 9.04618 14.8683 8.98061 15.1961L8.38159 18.1912L11.5528 16.6056C11.8343 16.4648 12.1657 16.4648 12.4472 16.6056L15.6185 18.1912L15.0194 15.1961C14.9539 14.8683 15.0565 14.5293 15.2929 14.2929L17.9717 11.6141L14.8039 10.9806C14.5276 10.9253 14.2875 10.7561 14.1425 10.5145L12 6.94365Z" fill="black"/>
</svg>
